<svg width="430" height="932" viewBox="0 0 430 932" fill="none" xmlns="http://www.w3.org/2000/svg">
<g clip-path="url(#clip0_203_201)">
<g clip-path="url(#clip1_203_201)">
<path d="M-77.0792 776.05L-61.2274 767.581C-45.3755 759.113 -13.7471 742.133 0.280253 756.101C13.9803 770.2 10.2009 814.514 26.6608 824.276C43.1409 833.569 79.6721 808.201 98.912 813.158C117.787 818.224 118.91 854.151 135.474 863.733C151.775 873.163 183.516 856.248 210.262 848.229C236.846 839.796 258.2 840.925 277.063 845.664C296.202 850.883 312.728 860.443 313.626 896.239C314.9 932.252 300.884 994.697 311.963 1012.89C323.52 1031.04 360.277 1005.8 376.569 1014.99C392.953 1024.71 389.061 1068.96 413.166 1065.5C437.367 1061.62 489.113 1009.78 503.244 1023.57C517.225 1037.27 492.558 1117.6 511.798 1122.56C530.71 1127.65 592.957 1057.83 632.456 1027.76C671.768 997.59 688.143 1007.06 691.954 1038.69C695.678 1069.95 686.376 1123.9 687.754 1159.73C688.66 1195.77 700.246 1213.7 709.061 1236.68C717.783 1259.12 723.847 1286.68 745.247 1287.03C767.062 1287.63 803.743 1262.35 822.607 1267.08C841.708 1272.28 842.981 1308.29 851.524 1330.87C860.405 1353.65 877.007 1363.25 903.377 1355.02C930.186 1346.72 966.605 1321.28 983.273 1330.68C999.62 1340.38 995.765 1384.65 1002.01 1412.08C1008.24 1439.17 1024.58 1448.62 1046.25 1449.37C1067.6 1450.26 1094.4 1441.71 1107.65 1437.91L1120.96 1433.83L1044.51 1565.98L1036.31 1561.24C1028.1 1556.49 1011.84 1547.08 995.272 1537.5C978.821 1527.98 962.52 1518.55 945.956 1508.97C929.542 1499.47 913.204 1490.02 896.64 1480.44C880.264 1470.97 863.888 1461.49 847.324 1451.91C830.948 1442.44 814.572 1432.97 798.008 1423.38C781.67 1413.93 765.257 1404.44 748.692 1394.86C732.392 1385.43 715.941 1375.91 699.377 1366.33C683.114 1356.92 666.625 1347.38 650.437 1338.02C633.835 1328.41 617.309 1318.85 601.121 1309.49C584.557 1299.9 567.993 1290.32 551.805 1280.96C535.279 1271.4 518.677 1261.79 502.49 1252.43C486.001 1242.89 469.738 1233.48 453.174 1223.9C436.723 1214.38 420.422 1204.95 403.858 1195.37C387.444 1185.88 371.106 1176.43 354.542 1166.84C338.166 1157.37 321.79 1147.9 305.226 1138.31C288.85 1128.84 272.474 1119.37 255.91 1109.79C239.572 1100.33 223.159 1090.84 206.594 1081.26C190.294 1071.83 173.843 1062.31 157.279 1052.73C141.016 1043.32 124.527 1033.78 108.339 1024.42C91.7375 1014.81 75.211 1005.25 59.0234 995.889C42.4593 986.307 25.8952 976.725 9.70752 967.361C-6.81894 957.8 -23.4207 948.196 -39.6083 938.832C-56.0972 929.293 -72.3601 919.886 -88.9242 910.303C-105.375 900.787 -121.676 891.357 -129.958 886.566L-138.24 881.775L-77.0792 776.05Z" fill="url(#paint0_linear_203_201)"/>
</g>
<g clip-path="url(#clip2_203_201)">
<path d="M559.312 152.68L546.957 158.687C534.603 164.694 509.964 176.743 496.061 166.046C482.42 155.257 479.513 122.267 464.117 114.66C448.769 107.402 421.107 125.613 404.004 121.537C387.197 117.387 381.267 90.5588 365.807 83.0841C350.593 75.7283 325.848 87.7257 304.135 93.1837C282.618 98.9542 264.241 97.693 247.489 93.7868C230.436 89.5173 215.011 82.0596 209.292 55.3335C203.222 28.4377 206.541 -17.8794 194.57 -31.6727C182.196 -45.4423 154.324 -27.3333 139.151 -34.5058C123.825 -42.0789 121.024 -75.0184 100.933 -72.9149C80.8191 -70.4956 43.8376 -32.8296 29.8713 -43.394C16.0457 -53.8905 25.9782 -113.347 8.87494 -117.423C-7.96731 -121.591 -51.4212 -70.7172 -80.966 -49.0602C-110.335 -27.3182 -125.62 -34.7079 -133.248 -58.3817C-140.75 -81.7769 -140.278 -121.847 -146.412 -148.61C-152.172 -175.519 -164.539 -189.123 -175.24 -206.44C-185.789 -223.357 -194.776 -244.04 -213.086 -244.724C-231.782 -245.595 -259.585 -227.452 -276.337 -231.358C-293.355 -235.61 -299.425 -262.506 -309.839 -279.522C-320.569 -296.69 -336.064 -304.182 -357.425 -298.554C-379.153 -292.885 -406.71 -274.623 -422.234 -281.966C-437.525 -289.522 -440.361 -322.478 -449.483 -343.062C-458.55 -363.402 -473.799 -370.775 -492.396 -371.761C-510.732 -372.839 -532.419 -366.987 -543.201 -364.412L-553.997 -361.627L-507.048 -458.733L-499.388 -455.03C-491.729 -451.326 -476.55 -443.988 -461.09 -436.513C-445.735 -429.089 -430.521 -421.733 -415.061 -414.259C-399.741 -406.852 -384.492 -399.479 -369.032 -392.004C-353.748 -384.615 -338.463 -377.225 -323.003 -369.75C-307.719 -362.36 -292.434 -354.971 -276.974 -347.496C-261.725 -340.123 -246.405 -332.716 -230.945 -325.242C-215.731 -317.886 -200.377 -310.462 -184.916 -302.987C-169.737 -295.649 -154.348 -288.208 -139.239 -280.903C-123.744 -273.411 -108.319 -265.954 -93.2101 -258.649C-77.75 -251.174 -62.2899 -243.699 -47.1812 -236.394C-31.7563 -228.937 -16.2611 -221.445 -1.15235 -214.14C14.2374 -206.699 29.4164 -199.361 44.8765 -191.886C60.2311 -184.462 75.4453 -177.106 90.9053 -169.632C106.225 -162.225 121.474 -154.852 136.934 -147.377C152.219 -139.988 167.503 -132.598 182.963 -125.123C198.247 -117.733 213.532 -110.344 228.992 -102.869C244.241 -95.4962 259.561 -88.0894 275.021 -80.6147C290.235 -73.2589 305.59 -65.8352 321.05 -58.3605C336.229 -51.0217 351.618 -43.5809 366.727 -36.2761C382.222 -28.7844 397.647 -21.3267 412.756 -14.0219C428.216 -6.54715 443.676 0.927563 458.785 8.23239C474.21 15.6901 489.705 23.1818 504.814 30.4866C520.203 37.9274 535.382 45.2662 550.843 52.7409C566.197 60.1646 581.411 67.5204 589.141 71.2578L596.871 74.9951L559.312 152.68Z" fill="url(#paint1_linear_203_201)"/>
</g>
</g>
<defs>
<linearGradient id="paint0_linear_203_201" x1="-138.24" y1="881.775" x2="10.4771" y2="624.696" gradientUnits="userSpaceOnUse">
<stop offset="0.095" stop-color="#3949AB"/>
<stop offset="0.8" stop-color="#5F75FF" stop-opacity="0.8"/>
</linearGradient>
<linearGradient id="paint1_linear_203_201" x1="596.871" y1="74.9951" x2="505.543" y2="263.891" gradientUnits="userSpaceOnUse">
<stop offset="0.095" stop-color="#3949AB"/>
<stop offset="0.8" stop-color="#5F75FF" stop-opacity="0.8"/>
</linearGradient>
<clipPath id="clip0_203_201">
<rect width="430" height="932" fill="white"/>
</clipPath>
<clipPath id="clip1_203_201">
<rect width="626.27" height="305.353" fill="white" transform="translate(-1.09814 618) rotate(30.0489)"/>
</clipPath>
<clipPath id="clip2_203_201">
<rect width="562" height="215.72" fill="white" transform="translate(516.347 269.115) rotate(-154.197)"/>
</clipPath>
</defs>
</svg>
